<?xml version="1.0" encoding="utf-8"?>
<!-- Generator: Adobe Illustrator 22.0.1, SVG Export Plug-In . SVG Version: 6.00 Build 0)  -->
<svg version="1.1" id="Layer_1" xmlns="http://www.w3.org/2000/svg" xmlns:xlink="http://www.w3.org/1999/xlink" x="0px" y="0px"
	 viewBox="0 0 56.7 56.7" style="enable-background:new 0 0 56.7 56.7;" xml:space="preserve">
<style type="text/css">
	.st0{fill:#FFFFFF;}
	.st1{fill:#FAFAFA;}
	.st2{fill:#EDEDED;}
	.st3{fill:#5F3BBA;}
	.st4{fill:#757575;}
	.st5{fill:#CFCFCF;}
	.st6{opacity:5.000000e-02;fill:#A8A8A8;}
	.st7{fill:#556E28;}
	.st8{fill:#6A9541;}
	.st9{fill:#8D5D1E;}
	.st10{fill:#F9F9F9;}
	.st11{fill:#111111;}
	.st12{fill:#999999;}
	.st13{fill:#A3A3A3;}
	.st14{opacity:0.6;fill:#B2B2B2;}
	.st15{opacity:0.8;fill:#B2B2B2;}
	.st16{fill:#B2B2B2;}
	.st17{opacity:0.6;fill:#556E28;}
	.st18{opacity:0.8;fill:#556E28;}
	.st19{fill:#A8A8A8;}
	.st20{opacity:0.7;fill:#FFFFFF;}
	.st21{fill:#ECECEC;}
	.st22{opacity:0.6;fill:#FFFFFF;}
	.st23{opacity:0.8;fill:#FFFFFF;}
	.st24{fill:url(#SVGID_1_);}
	.st25{fill:none;stroke:#999999;stroke-miterlimit:10;}
	.st26{fill:none;stroke:#A3A3A3;stroke-miterlimit:10;}
	.st27{fill:none;stroke:#6A9541;stroke-width:3;stroke-miterlimit:10;}
	.st28{opacity:0.1;fill:#FFFFFF;}
	.st29{fill:url(#SVGID_2_);}
	.st30{fill:#222222;}
	.st31{fill:url(#SVGID_3_);}
	.st32{fill:url(#SVGID_4_);}
	.st33{opacity:7.000000e-02;fill:#A8A8A8;}
	.st34{fill:url(#SVGID_5_);}
	.st35{opacity:0.1;}
	.st36{fill:#EEEEEE;}
	.st37{fill:url(#SVGID_6_);}
	.st38{fill:url(#SVGID_7_);}
	.st39{fill:url(#SVGID_8_);}
	.st40{fill:url(#SVGID_9_);}
	.st41{fill:url(#SVGID_10_);}
	.st42{fill:url(#SVGID_11_);}
	.st43{fill:url(#SVGID_12_);}
	.st44{fill:#4C4C4C;}
	.st45{fill:url(#SVGID_13_);}
	.st46{fill:#303030;}
	.st47{fill:url(#SVGID_14_);}
	.st48{fill:url(#SVGID_15_);}
	.st49{fill:url(#SVGID_16_);}
	.st50{fill:url(#SVGID_17_);}
	.st51{fill:url(#SVGID_18_);}
	.st52{fill:url(#SVGID_19_);}
	.st53{fill:url(#SVGID_20_);}
	.st54{fill:url(#SVGID_21_);}
</style>
<linearGradient id="SVGID_1_" gradientUnits="userSpaceOnUse" x1="2.8935" y1="53.821" x2="53.821" y2="2.8935">
	<stop  offset="0" style="stop-color:#452EB3"/>
	<stop  offset="1" style="stop-color:#AC60D0"/>
</linearGradient>
<path class="st24" d="M46.9,56.7h-37c-5.4,0-9.9-4.4-9.9-9.9v-37C0,4.4,4.4,0,9.9,0h37c5.4,0,9.9,4.4,9.9,9.9v37
	C56.7,52.3,52.3,56.7,46.9,56.7z"/>
<g>
	<path class="st0" d="M10.8,36.7V20.3c0.8-0.2,1.8-0.3,2.8-0.4c1.1-0.1,2.1-0.2,3-0.2c3.3,0,5.8,0.7,7.5,2.1s2.5,3.6,2.5,6.5
		c0,2-0.4,3.7-1.2,5c-0.8,1.3-2,2.2-3.6,2.8c-1.6,0.6-3.6,0.9-6.1,0.9C14.1,37,12.4,36.9,10.8,36.7z M20.1,33.3
		c0.9-0.4,1.5-1,1.9-1.8c0.4-0.8,0.6-1.9,0.6-3.2c0-1.9-0.5-3.3-1.4-4.2c-0.9-0.9-2.4-1.3-4.4-1.3c-0.6,0-1.3,0.1-2.1,0.2v10.8
		c0.5,0.1,1.2,0.1,2.1,0.1C18.1,33.9,19.2,33.7,20.1,33.3z"/>
	<path class="st0" d="M32.7,36.1c-1.3-0.7-2.3-1.6-3-3c-0.7-1.3-1-2.9-1-4.8c0-1.9,0.3-3.5,1-4.8c0.7-1.3,1.7-2.3,3-2.9
		c1.3-0.7,2.8-1,4.6-1c1.8,0,3.3,0.3,4.6,1c1.3,0.7,2.3,1.6,3,3c0.7,1.3,1,2.9,1,4.8c0,1.9-0.3,3.5-1,4.8c-0.7,1.3-1.7,2.3-3,3
		s-2.8,1-4.6,1C35.6,37.1,34,36.8,32.7,36.1z M40.7,32.6c0.8-0.9,1.2-2.3,1.2-4.2c0-1.9-0.4-3.4-1.2-4.3c-0.8-0.9-1.9-1.4-3.4-1.4
		c-1.5,0-2.6,0.5-3.4,1.4c-0.8,0.9-1.2,2.3-1.2,4.2c0,2,0.4,3.4,1.2,4.3c0.8,0.9,1.9,1.4,3.4,1.4C38.8,34,40,33.5,40.7,32.6z"/>
</g>
</svg>
