<?xml version="1.0" encoding="utf-8"?>
<!-- Generator: Adobe Illustrator 22.0.1, SVG Export Plug-In . SVG Version: 6.00 Build 0)  -->
<svg version="1.1" id="Layer_1" xmlns="http://www.w3.org/2000/svg" xmlns:xlink="http://www.w3.org/1999/xlink" x="0px" y="0px"
	 viewBox="0 0 238.5 56.7" style="enable-background:new 0 0 238.5 56.7;" xml:space="preserve">
<style type="text/css">
	.st0{fill:#FFFFFF;}
	.st1{fill:#FAFAFA;}
	.st2{fill:#EDEDED;}
	.st3{fill:#5F3BBA;}
	.st4{fill:#757575;}
	.st5{fill:#CFCFCF;}
	.st6{opacity:5.000000e-02;fill:#A8A8A8;}
	.st7{fill:#556E28;}
	.st8{fill:#6A9541;}
	.st9{fill:#8D5D1E;}
	.st10{fill:#F9F9F9;}
	.st11{fill:#111111;}
	.st12{fill:#999999;}
	.st13{fill:#A3A3A3;}
	.st14{opacity:0.6;fill:#B2B2B2;}
	.st15{opacity:0.8;fill:#B2B2B2;}
	.st16{fill:#B2B2B2;}
	.st17{opacity:0.6;fill:#556E28;}
	.st18{opacity:0.8;fill:#556E28;}
	.st19{fill:#A8A8A8;}
	.st20{opacity:0.7;fill:#FFFFFF;}
	.st21{fill:#ECECEC;}
	.st22{opacity:0.6;fill:#FFFFFF;}
	.st23{opacity:0.8;fill:#FFFFFF;}
	.st24{fill:url(#SVGID_1_);}
	.st25{fill:none;stroke:#999999;stroke-miterlimit:10;}
	.st26{fill:none;stroke:#A3A3A3;stroke-miterlimit:10;}
	.st27{fill:none;stroke:#6A9541;stroke-width:3;stroke-miterlimit:10;}
	.st28{opacity:0.1;fill:#FFFFFF;}
	.st29{fill:url(#SVGID_2_);}
	.st30{fill:#222222;}
	.st31{fill:url(#SVGID_3_);}
	.st32{fill:url(#SVGID_4_);}
	.st33{opacity:7.000000e-02;fill:#A8A8A8;}
	.st34{fill:url(#SVGID_5_);}
	.st35{opacity:0.1;}
	.st36{fill:#EEEEEE;}
	.st37{fill:url(#SVGID_6_);}
	.st38{fill:url(#SVGID_7_);}
	.st39{fill:url(#SVGID_8_);}
	.st40{fill:url(#SVGID_9_);}
	.st41{fill:url(#SVGID_10_);}
	.st42{fill:url(#SVGID_11_);}
	.st43{fill:#4C4C4C;}
	.st44{fill:url(#SVGID_12_);}
	.st45{fill:#303030;}
	.st46{fill:url(#SVGID_13_);}
	.st47{fill:url(#SVGID_14_);}
	.st48{fill:url(#SVGID_15_);}
	.st49{fill:url(#SVGID_16_);}
	.st50{fill:url(#SVGID_17_);}
	.st51{fill:url(#SVGID_18_);}
	.st52{fill:url(#SVGID_19_);}
	.st53{fill:url(#SVGID_20_);}
</style>
<g>
	<path class="st0" d="M46.9,56.7h-37c-5.4,0-9.9-4.4-9.9-9.9v-37C0,4.4,4.4,0,9.9,0h37c5.4,0,9.9,4.4,9.9,9.9v37
		C56.7,52.3,52.3,56.7,46.9,56.7z"/>
	<g>
		<path class="st0" d="M82.7,28.6v7c-1.4,0.2-2.7,0.3-3.9,0.3c-3,0-5.3-0.6-6.7-1.9c-1.5-1.2-2.2-3.1-2.2-5.6c0-2.5,0.8-4.4,2.3-5.7
			s3.7-1.9,6.7-1.9c1.2,0,2.4,0.1,3.5,0.4v2.8c-1-0.2-2.1-0.4-3.2-0.4c-1.3,0-2.4,0.2-3.2,0.5c-0.8,0.3-1.4,0.9-1.8,1.6
			c-0.4,0.7-0.6,1.7-0.6,2.8c0,1.6,0.4,2.8,1.3,3.5c0.8,0.8,2.2,1.2,3.9,1.2c0.3,0,0.7,0,1,0v-4.6H82.7z"/>
		<path class="st0" d="M94.7,35.8l-3.9-5.4h-0.2c-0.4,0-0.9,0-1.7-0.1v5.5h-3.4V21.3c0.7-0.2,1.5-0.3,2.4-0.4
			c0.9-0.1,1.7-0.2,2.5-0.2c2.2,0,3.9,0.4,5,1.2s1.7,2,1.7,3.6c0,1.1-0.3,1.9-0.8,2.7c-0.5,0.7-1.3,1.3-2.3,1.6l4.4,5.9H94.7z
			 M88.9,27.8c0.6,0.1,1.2,0.1,1.8,0.1c1.1,0,1.9-0.2,2.5-0.6c0.5-0.4,0.8-1,0.8-1.8c0-0.8-0.3-1.4-0.8-1.8
			c-0.5-0.4-1.3-0.6-2.4-0.6c-0.6,0-1.2,0.1-1.9,0.2V27.8z"/>
		<path class="st0" d="M109.7,35.8l-1.3-3.9h-5.9l-1.3,3.9h-3.3L103,21h4.9l5.2,14.8H109.7z M103.3,29.2h4.2l-2.1-6.3L103.3,29.2z"
			/>
		<path class="st0" d="M125.1,21h3.2v14.8h-3.4l-6.9-10v10h-3.2V21h3.4l6.9,10V21z"/>
		<path class="st0" d="M134.9,35.8V23.7h-5V21h13.3v2.7h-5v12.1H134.9z"/>
		<path class="st0" d="M149.7,28.4c0-1.6,0.3-3,1-4.2s1.6-2,2.9-2.6c1.3-0.6,2.8-0.9,4.6-0.9c1.2,0,2.3,0.1,3.4,0.4v2.8
			c-1-0.2-2.1-0.3-3.1-0.3c-1.8,0-3.1,0.4-3.9,1.2c-0.8,0.8-1.2,2-1.2,3.6c0,1.7,0.4,2.9,1.2,3.7c0.8,0.8,2.1,1.1,3.8,1.1
			c1.1,0,2.2-0.2,3.3-0.5v2.8c-1.1,0.3-2.2,0.5-3.5,0.5C152.5,35.9,149.7,33.4,149.7,28.4z"/>
		<path class="st0" d="M166.2,35.1c-1.1-0.6-2-1.4-2.6-2.6c-0.6-1.1-0.9-2.5-0.9-4.2c0-1.6,0.3-3,0.9-4.2c0.6-1.1,1.5-2,2.6-2.6
			c1.1-0.6,2.5-0.9,4-0.9c1.5,0,2.9,0.3,4,0.9c1.1,0.6,2,1.4,2.6,2.6s0.9,2.5,0.9,4.2c0,1.6-0.3,3-0.9,4.2c-0.6,1.1-1.5,2-2.6,2.6
			c-1.1,0.6-2.5,0.9-4,0.9C168.6,35.9,167.3,35.7,166.2,35.1z M173.1,32.1c0.7-0.8,1-2,1-3.6c0-1.7-0.3-2.9-1-3.7
			c-0.7-0.8-1.7-1.2-3-1.2c-1.3,0-2.3,0.4-3,1.2c-0.7,0.8-1,2-1,3.6c0,1.7,0.3,3,1,3.8c0.7,0.8,1.7,1.2,3,1.2
			C171.4,33.2,172.4,32.8,173.1,32.1z"/>
		<path class="st0" d="M181.5,34.3c-1.1-1.1-1.6-2.7-1.6-4.9V21h3.4v8.8c0,1.2,0.3,2.1,0.8,2.6c0.5,0.6,1.3,0.8,2.4,0.8
			c1.1,0,1.9-0.3,2.4-0.8c0.5-0.6,0.8-1.4,0.8-2.6V21h3.4v8.5c0,2.2-0.5,3.8-1.6,4.9c-1.1,1.1-2.7,1.6-5,1.6
			C184.3,35.9,182.6,35.4,181.5,34.3z"/>
		<path class="st0" d="M206.3,21h3.2v14.8h-3.4l-6.9-10v10H196V21h3.4l6.9,10V21z"/>
		<path class="st0" d="M216.1,35.8V23.7h-4.9V21h13.3v2.7h-5v12.1H216.1z"/>
		<path class="st0" d="M238.5,21l-5.5,8.5v6.3h-3.4v-6.3L224,21h3.6l3.8,5.8l3.7-5.8H238.5z"/>
	</g>
	<g>
		<path class="st3" d="M10.8,36.7V20.3c0.8-0.2,1.8-0.3,2.8-0.4c1.1-0.1,2.1-0.2,3-0.2c3.3,0,5.8,0.7,7.5,2.1s2.5,3.6,2.5,6.5
			c0,2-0.4,3.7-1.2,5c-0.8,1.3-2,2.2-3.6,2.8c-1.6,0.6-3.6,0.9-6.1,0.9C14.1,37,12.4,36.9,10.8,36.7z M20.1,33.3
			c0.9-0.4,1.5-1,1.9-1.8c0.4-0.8,0.6-1.9,0.6-3.2c0-1.9-0.5-3.3-1.4-4.2c-0.9-0.9-2.4-1.3-4.4-1.3c-0.6,0-1.3,0.1-2.1,0.2v10.8
			c0.5,0.1,1.2,0.1,2.1,0.1C18.1,33.9,19.2,33.7,20.1,33.3z"/>
		<path class="st3" d="M32.7,36.1c-1.3-0.7-2.3-1.6-3-3c-0.7-1.3-1-2.9-1-4.8c0-1.9,0.3-3.5,1-4.8c0.7-1.3,1.7-2.3,3-2.9
			c1.3-0.7,2.8-1,4.6-1c1.8,0,3.3,0.3,4.6,1c1.3,0.7,2.3,1.6,3,3c0.7,1.3,1,2.9,1,4.8c0,1.9-0.3,3.5-1,4.8c-0.7,1.3-1.7,2.3-3,3
			s-2.8,1-4.6,1C35.6,37.1,34,36.8,32.7,36.1z M40.7,32.6c0.8-0.9,1.2-2.3,1.2-4.2c0-1.9-0.4-3.4-1.2-4.3c-0.8-0.9-1.9-1.4-3.4-1.4
			c-1.5,0-2.6,0.5-3.4,1.4c-0.8,0.9-1.2,2.3-1.2,4.2c0,2,0.4,3.4,1.2,4.3c0.8,0.9,1.9,1.4,3.4,1.4C38.8,34,40,33.5,40.7,32.6z"/>
	</g>
</g>
</svg>
